<?xml version="1.0" encoding="UTF-8" standalone="no"?><svg xmlns="http://www.w3.org/2000/svg" xmlns:xlink="http://www.w3.org/1999/xlink" contentScriptType="application/ecmascript" contentStyleType="text/css" height="381px" preserveAspectRatio="none" style="width:311px;height:381px;" version="1.1" viewBox="0 0 311 381"
    width="311px" zoomAndPan="magnify"><defs><filter height="300%" id="fnp4lx8ybsrx6" width="300%" x="-1" y="-1"><feGaussianBlur result="blurOut" stdDeviation="2.0"/><feColorMatrix in="blurOut" result="blurOut2" type="matrix" values="0 0 0 0 0 0 0 0 0 0 0 0 0 0 0 0 0 0 .4 0"/><feOffset dx="4.0" dy="4.0" in="blurOut2" result="blurOut3"/><feBlend in="SourceGraphic" in2="blurOut3" mode="normal"/></filter></defs><g><ellipse cx="224" cy="20" fill="#000000" filter="url(#fnp4lx8ybsrx6)" rx="10" ry="10" style="stroke: none; stroke-width: 1.0;"/><polygon fill="#FBFB77" filter="url(#fnp4lx8ybsrx6)" points="20,40,20,110.5313,133,110.5313,133,50,123,40,20,40" style="stroke: #A80036; stroke-width: 1.0;"/><polygon fill="#FBFB77" points="20,40,20,110.5313,133,110.5313,133,79.2656,153,75.2656,133,71.2656,133,50,123,40,20,40" style="stroke: #A80036; stroke-width: 1.0;"/><line style="stroke: #A80036; stroke-width: 1.0;" x1="123" x2="123" y1="40" y2="50"/><line style="stroke: #A80036; stroke-width: 1.0;" x1="133" x2="123" y1="50" y2="50"/><text fill="#000000" font-family="sans-serif" font-size="13" lengthAdjust="spacingAndGlyphs" textLength="92" x="26" y="57.0669">configFilePath,</text><text fill="#000000" font-family="sans-serif" font-size="13" lengthAdjust="spacingAndGlyphs" textLength="92" x="26" y="72.1997">destination(s),</text><text fill="#000000" font-family="sans-serif" font-size="13" lengthAdjust="spacingAndGlyphs" textLength="36" x="26" y="87.3325">isDry,</text><text fill="#000000" font-family="sans-serif" font-size="13" lengthAdjust="spacingAndGlyphs" textLength="24" x="26" y="102.4653">cwd</text><rect fill="#FEFECE" filter="url(#fnp4lx8ybsrx6)" height="33.9688" rx="12.5" ry="12.5" style="stroke: #A80036; stroke-width: 1.5;" width="142" x="153" y="58.2813"/><text fill="#000000" font-family="sans-serif" font-size="12" lengthAdjust="spacingAndGlyphs" textLength="122" x="163" y="79.4199">get nessesary data</text><rect fill="#FEFECE" filter="url(#fnp4lx8ybsrx6)" height="33.9688" rx="12.5" ry="12.5" style="stroke: #A80036; stroke-width: 1.5;" width="160" x="144" y="130.5313"/><text fill="#000000" font-family="sans-serif" font-size="12" lengthAdjust="spacingAndGlyphs" textLength="140" x="154" y="151.6699">getFile(configFilePath)</text><rect fill="#FEFECE" filter="url(#fnp4lx8ybsrx6)" height="33.9688" rx="12.5" ry="12.5" style="stroke: #A80036; stroke-width: 1.5;" width="109" x="169.5" y="228.5"/><text fill="#000000" font-family="sans-serif" font-size="12" lengthAdjust="spacingAndGlyphs" textLength="89" x="179.5" y="249.6387">mergeConfig()</text><rect fill="#FEFECE" filter="url(#fnp4lx8ybsrx6)" height="33.9688" rx="12.5" ry="12.5" style="stroke: #A80036; stroke-width: 1.5;" width="107" x="170.5" y="282.4688"/><text fill="#000000" font-family="sans-serif" font-size="12" lengthAdjust="spacingAndGlyphs" textLength="87" x="180.5" y="303.6074">createRsync()</text><rect fill="#FEFECE" filter="url(#fnp4lx8ybsrx6)" height="33.9688" rx="12.5" ry="12.5" style="stroke: #A80036; stroke-width: 1.5;" width="80" x="184" y="336.4375"/><text fill="#000000" font-family="sans-serif" font-size="12" lengthAdjust="spacingAndGlyphs" textLength="60" x="194" y="357.5762">execute()</text><polygon fill="#FEFECE" filter="url(#fnp4lx8ybsrx6)" points="189,184.5,259,184.5,271,196.5,259,208.5,189,208.5,177,196.5,189,184.5" style="stroke: #A80036; stroke-width: 1.5;"/><text fill="#000000" font-family="sans-serif" font-size="11" lengthAdjust="spacingAndGlyphs" textLength="70" x="189" y="200.3081">destinations</text><ellipse cx="159.5" cy="238.5" fill="none" filter="url(#fnp4lx8ybsrx6)" rx="10" ry="10" style="stroke: #000000; stroke-width: 1.0;"/><ellipse cx="160" cy="239" fill="#000000" filter="url(#fnp4lx8ybsrx6)" rx="6" ry="6" style="stroke: none; stroke-width: 1.0;"/><line style="stroke: #A80036; stroke-width: 1.5;" x1="224" x2="224" y1="30" y2="58.2813"/><polygon fill="#A80036" points="220,48.2813,224,58.2813,228,48.2813,224,52.2813" style="stroke: #A80036; stroke-width: 1.0;"/><line style="stroke: #A80036; stroke-width: 1.5;" x1="224" x2="224" y1="92.25" y2="130.5313"/><polygon fill="#A80036" points="220,120.5313,224,130.5313,228,120.5313,224,124.5313" style="stroke: #A80036; stroke-width: 1.0;"/><line style="stroke: #A80036; stroke-width: 1.5;" x1="224" x2="224" y1="262.4688" y2="282.4688"/><polygon fill="#A80036" points="220,272.4688,224,282.4688,228,272.4688,224,276.4688" style="stroke: #A80036; stroke-width: 1.0;"/><line style="stroke: #A80036; stroke-width: 1.5;" x1="224" x2="224" y1="316.4375" y2="336.4375"/><polygon fill="#A80036" points="220,326.4375,224,336.4375,228,326.4375,224,330.4375" style="stroke: #A80036; stroke-width: 1.0;"/><line style="stroke: #A80036; stroke-width: 1.5;" x1="224" x2="224" y1="208.5" y2="228.5"/><polygon fill="#A80036" points="220,218.5,224,228.5,228,218.5,224,222.5" style="stroke: #A80036; stroke-width: 1.0;"/><line style="stroke: #A80036; stroke-width: 1.5;" x1="224" x2="224" y1="370.4063" y2="380.4063"/><line style="stroke: #A80036; stroke-width: 1.5;" x1="224" x2="290.5" y1="380.4063" y2="380.4063"/><polygon fill="#A80036" points="286.5,297.4531,290.5,287.4531,294.5,297.4531,290.5,293.4531" style="stroke: #A80036; stroke-width: 1.5;"/><line style="stroke: #A80036; stroke-width: 1.5;" x1="290.5" x2="290.5" y1="196.5" y2="380.4063"/><line style="stroke: #A80036; stroke-width: 1.5;" x1="290.5" x2="271" y1="196.5" y2="196.5"/><polygon fill="#A80036" points="281,192.5,271,196.5,281,200.5,277,196.5" style="stroke: #A80036; stroke-width: 1.0;"/><line style="stroke: #A80036; stroke-width: 1.5;" x1="177" x2="159.5" y1="196.5" y2="196.5"/><line style="stroke: #A80036; stroke-width: 1.5;" x1="159.5" x2="159.5" y1="196.5" y2="228.5"/><polygon fill="#A80036" points="155.5,218.5,159.5,228.5,163.5,218.5,159.5,222.5" style="stroke: #A80036; stroke-width: 1.0;"/><line style="stroke: #A80036; stroke-width: 1.5;" x1="224" x2="224" y1="164.5" y2="184.5"/><polygon fill="#A80036" points="220,174.5,224,184.5,228,174.5,224,178.5" style="stroke: #A80036; stroke-width: 1.0;"/><!--
@startuml
start
:get nessesary data;
note
configFilePath,
destination(s),
isDry,
cwd
end note
:getFile(configFilePath);
while (destinations)
:mergeConfig();
:createRsync();
:execute();
endwhile
stop
@enduml

PlantUML version 1.2017.12(Wed Apr 26 18:06:36 CEST 2017)
(GPL source distribution)
Java Runtime: OpenJDK Runtime Environment
JVM: OpenJDK 64-Bit Server VM
Java Version: 1.8.0_131-8u131-b11-2ubuntu1.17.04.3-b11
Operating System: Linux
OS Version: 4.10.0-35-generic
Default Encoding: UTF-8
Language: en
Country: GB
--></g></svg>