<?xml version="1.0" encoding="UTF-8" standalone="no"?><svg xmlns="http://www.w3.org/2000/svg" xmlns:xlink="http://www.w3.org/1999/xlink" contentScriptType="application/ecmascript" contentStyleType="text/css" height="573px" preserveAspectRatio="none" style="width:432px;height:573px;" version="1.1" viewBox="0 0 432 573"
    width="432px" zoomAndPan="magnify"><defs><filter height="300%" id="f1u6avv5veiy5r" width="300%" x="-1" y="-1"><feGaussianBlur result="blurOut" stdDeviation="2.0"/><feColorMatrix in="blurOut" result="blurOut2" type="matrix" values="0 0 0 0 0 0 0 0 0 0 0 0 0 0 0 0 0 0 .4 0"/><feOffset dx="4.0" dy="4.0" in="blurOut2" result="blurOut3"/><feBlend in="SourceGraphic" in2="blurOut3" mode="normal"/></filter></defs><g><ellipse cx="224" cy="20" fill="#000000" filter="url(#f1u6avv5veiy5r)" rx="10" ry="10" style="stroke: none; stroke-width: 1.0;"/><polygon fill="#FBFB77" filter="url(#f1u6avv5veiy5r)" points="20,40,20,110.5313,133,110.5313,133,50,123,40,20,40" style="stroke: #A80036; stroke-width: 1.0;"/><polygon fill="#FBFB77" points="20,40,20,110.5313,133,110.5313,133,79.2656,153,75.2656,133,71.2656,133,50,123,40,20,40" style="stroke: #A80036; stroke-width: 1.0;"/><line style="stroke: #A80036; stroke-width: 1.0;" x1="123" x2="123" y1="40" y2="50"/><line style="stroke: #A80036; stroke-width: 1.0;" x1="133" x2="123" y1="50" y2="50"/><text fill="#000000" font-family="sans-serif" font-size="13" lengthAdjust="spacingAndGlyphs" textLength="92" x="26" y="57.0669">configFilePath,</text><text fill="#000000" font-family="sans-serif" font-size="13" lengthAdjust="spacingAndGlyphs" textLength="92" x="26" y="72.1997">destination(s),</text><text fill="#000000" font-family="sans-serif" font-size="13" lengthAdjust="spacingAndGlyphs" textLength="36" x="26" y="87.3325">isDry,</text><text fill="#000000" font-family="sans-serif" font-size="13" lengthAdjust="spacingAndGlyphs" textLength="24" x="26" y="102.4653">cwd</text><rect fill="#FEFECE" filter="url(#f1u6avv5veiy5r)" height="33.9688" rx="12.5" ry="12.5" style="stroke: #A80036; stroke-width: 1.5;" width="142" x="153" y="58.2813"/><text fill="#000000" font-family="sans-serif" font-size="12" lengthAdjust="spacingAndGlyphs" textLength="122" x="163" y="79.4199">get nessesary data</text><polygon fill="#FBFB77" filter="url(#f1u6avv5veiy5r)" points="324,134.9492,324,160.082,423,160.082,423,144.9492,413,134.9492,324,134.9492" style="stroke: #A80036; stroke-width: 1.0;"/><polygon fill="#FBFB77" points="324,134.9492,324,143.5156,304,147.5156,324,151.5156,324,160.082,423,160.082,423,144.9492,413,134.9492,324,134.9492" style="stroke: #A80036; stroke-width: 1.0;"/><line style="stroke: #A80036; stroke-width: 1.0;" x1="413" x2="413" y1="134.9492" y2="144.9492"/><line style="stroke: #A80036; stroke-width: 1.0;" x1="423" x2="413" y1="144.9492" y2="144.9492"/><text fill="#000000" font-family="sans-serif" font-size="13" lengthAdjust="spacingAndGlyphs" textLength="78" x="330" y="152.0161">rsync step 1</text><rect fill="#FEFECE" filter="url(#f1u6avv5veiy5r)" height="33.9688" rx="12.5" ry="12.5" style="stroke: #A80036; stroke-width: 1.5;" width="160" x="144" y="130.5313"/><text fill="#000000" font-family="sans-serif" font-size="12" lengthAdjust="spacingAndGlyphs" textLength="140" x="154" y="151.6699">getFile(configFilePath)</text><rect fill="#FEFECE" filter="url(#f1u6avv5veiy5r)" height="33.9688" rx="12.5" ry="12.5" style="stroke: #A80036; stroke-width: 1.5;" width="105" x="171.5" y="184.5"/><text fill="#000000" font-family="sans-serif" font-size="12" lengthAdjust="spacingAndGlyphs" textLength="85" x="181.5" y="205.6387">findAllAmount</text><polygon fill="#FBFB77" filter="url(#f1u6avv5veiy5r)" points="298.5,286.8867,298.5,312.0195,397.5,312.0195,397.5,296.8867,387.5,286.8867,298.5,286.8867" style="stroke: #A80036; stroke-width: 1.0;"/><polygon fill="#FBFB77" points="298.5,286.8867,298.5,295.4531,278.5,299.4531,298.5,303.4531,298.5,312.0195,397.5,312.0195,397.5,296.8867,387.5,286.8867,298.5,286.8867" style="stroke: #A80036; stroke-width: 1.0;"/><line style="stroke: #A80036; stroke-width: 1.0;" x1="387.5" x2="387.5" y1="286.8867" y2="296.8867"/><line style="stroke: #A80036; stroke-width: 1.0;" x1="397.5" x2="387.5" y1="296.8867" y2="296.8867"/><text fill="#000000" font-family="sans-serif" font-size="13" lengthAdjust="spacingAndGlyphs" textLength="78" x="304.5" y="303.9536">rsync step 2</text><rect fill="#FEFECE" filter="url(#f1u6avv5veiy5r)" height="33.9688" rx="12.5" ry="12.5" style="stroke: #A80036; stroke-width: 1.5;" width="109" x="169.5" y="282.4688"/><text fill="#000000" font-family="sans-serif" font-size="12" lengthAdjust="spacingAndGlyphs" textLength="89" x="179.5" y="303.6074">mergeConfig()</text><polygon fill="#FBFB77" filter="url(#f1u6avv5veiy5r)" points="307.5,340.8555,307.5,365.9883,406.5,365.9883,406.5,350.8555,396.5,340.8555,307.5,340.8555" style="stroke: #A80036; stroke-width: 1.0;"/><polygon fill="#FBFB77" points="307.5,340.8555,307.5,349.4219,287.5,353.4219,307.5,357.4219,307.5,365.9883,406.5,365.9883,406.5,350.8555,396.5,340.8555,307.5,340.8555" style="stroke: #A80036; stroke-width: 1.0;"/><line style="stroke: #A80036; stroke-width: 1.0;" x1="396.5" x2="396.5" y1="340.8555" y2="350.8555"/><line style="stroke: #A80036; stroke-width: 1.0;" x1="406.5" x2="396.5" y1="350.8555" y2="350.8555"/><text fill="#000000" font-family="sans-serif" font-size="13" lengthAdjust="spacingAndGlyphs" textLength="78" x="313.5" y="357.9224">rsync step 3</text><rect fill="#FEFECE" filter="url(#f1u6avv5veiy5r)" height="33.9688" rx="12.5" ry="12.5" style="stroke: #A80036; stroke-width: 1.5;" width="127" x="160.5" y="336.4375"/><text fill="#000000" font-family="sans-serif" font-size="12" lengthAdjust="spacingAndGlyphs" textLength="107" x="170.5" y="357.5762">createRsyncObj()</text><polygon fill="#FBFB77" filter="url(#f1u6avv5veiy5r)" points="284,394.8242,284,419.957,383,419.957,383,404.8242,373,394.8242,284,394.8242" style="stroke: #A80036; stroke-width: 1.0;"/><polygon fill="#FBFB77" points="284,394.8242,284,403.3906,264,407.3906,284,411.3906,284,419.957,383,419.957,383,404.8242,373,394.8242,284,394.8242" style="stroke: #A80036; stroke-width: 1.0;"/><line style="stroke: #A80036; stroke-width: 1.0;" x1="373" x2="373" y1="394.8242" y2="404.8242"/><line style="stroke: #A80036; stroke-width: 1.0;" x1="383" x2="373" y1="404.8242" y2="404.8242"/><text fill="#000000" font-family="sans-serif" font-size="13" lengthAdjust="spacingAndGlyphs" textLength="78" x="290" y="411.8911">rsync step 4</text><rect fill="#FEFECE" filter="url(#f1u6avv5veiy5r)" height="33.9688" rx="12.5" ry="12.5" style="stroke: #A80036; stroke-width: 1.5;" width="80" x="184" y="390.4063"/><text fill="#000000" font-family="sans-serif" font-size="12" lengthAdjust="spacingAndGlyphs" textLength="60" x="194" y="411.5449">execute()</text><polygon fill="#FEFECE" filter="url(#f1u6avv5veiy5r)" points="189,238.4688,259,238.4688,271,250.4688,259,262.4688,189,262.4688,177,250.4688,189,238.4688" style="stroke: #A80036; stroke-width: 1.5;"/><text fill="#000000" font-family="sans-serif" font-size="11" lengthAdjust="spacingAndGlyphs" textLength="70" x="189" y="254.2769">destinations</text><polygon fill="#FBFB77" filter="url(#f1u6avv5veiy5r)" points="66,456.375,66,526.9063,176,526.9063,176,466.375,166,456.375,66,456.375" style="stroke: #A80036; stroke-width: 1.0;"/><polygon fill="#FBFB77" points="66,456.375,66,526.9063,176,526.9063,176,495.6406,196,491.6406,176,487.6406,176,466.375,166,456.375,66,456.375" style="stroke: #A80036; stroke-width: 1.0;"/><line style="stroke: #A80036; stroke-width: 1.0;" x1="166" x2="166" y1="456.375" y2="466.375"/><line style="stroke: #A80036; stroke-width: 1.0;" x1="176" x2="166" y1="466.375" y2="466.375"/><text fill="#000000" font-family="sans-serif" font-size="13" lengthAdjust="spacingAndGlyphs" textLength="8" x="72" y="473.4419">{</text><text fill="#000000" font-family="sans-serif" font-size="13" lengthAdjust="spacingAndGlyphs" textLength="81" x="80" y="488.5747">names: [*..],</text><text fill="#000000" font-family="sans-serif" font-size="13" lengthAdjust="spacingAndGlyphs" textLength="59" x="80" y="503.7075">logs: [*..]</text><text fill="#000000" font-family="sans-serif" font-size="13" lengthAdjust="spacingAndGlyphs" textLength="8" x="72" y="518.8403">}</text><rect fill="#FEFECE" filter="url(#f1u6avv5veiy5r)" height="33.9688" rx="12.5" ry="12.5" style="stroke: #A80036; stroke-width: 1.5;" width="56" x="196" y="474.6563"/><text fill="#000000" font-family="sans-serif" font-size="12" lengthAdjust="spacingAndGlyphs" textLength="36" x="206" y="495.7949">result</text><ellipse cx="224" cy="556.9063" fill="none" filter="url(#f1u6avv5veiy5r)" rx="10" ry="10" style="stroke: #000000; stroke-width: 1.0;"/><ellipse cx="224.5" cy="557.4063" fill="#000000" filter="url(#f1u6avv5veiy5r)" rx="6" ry="6" style="stroke: none; stroke-width: 1.0;"/><line style="stroke: #A80036; stroke-width: 1.5;" x1="224" x2="224" y1="30" y2="58.2813"/><polygon fill="#A80036" points="220,48.2813,224,58.2813,228,48.2813,224,52.2813" style="stroke: #A80036; stroke-width: 1.0;"/><line style="stroke: #A80036; stroke-width: 1.5;" x1="224" x2="224" y1="92.25" y2="130.5313"/><polygon fill="#A80036" points="220,120.5313,224,130.5313,228,120.5313,224,124.5313" style="stroke: #A80036; stroke-width: 1.0;"/><line style="stroke: #A80036; stroke-width: 1.5;" x1="224" x2="224" y1="164.5" y2="184.5"/><polygon fill="#A80036" points="220,174.5,224,184.5,228,174.5,224,178.5" style="stroke: #A80036; stroke-width: 1.0;"/><line style="stroke: #A80036; stroke-width: 1.5;" x1="224" x2="224" y1="316.4375" y2="336.4375"/><polygon fill="#A80036" points="220,326.4375,224,336.4375,228,326.4375,224,330.4375" style="stroke: #A80036; stroke-width: 1.0;"/><line style="stroke: #A80036; stroke-width: 1.5;" x1="224" x2="224" y1="370.4063" y2="390.4063"/><polygon fill="#A80036" points="220,380.4063,224,390.4063,228,380.4063,224,384.4063" style="stroke: #A80036; stroke-width: 1.0;"/><line style="stroke: #A80036; stroke-width: 1.5;" x1="224" x2="224" y1="262.4688" y2="282.4688"/><polygon fill="#A80036" points="220,272.4688,224,282.4688,228,272.4688,224,276.4688" style="stroke: #A80036; stroke-width: 1.0;"/><line style="stroke: #A80036; stroke-width: 1.5;" x1="224" x2="224" y1="424.375" y2="434.375"/><line style="stroke: #A80036; stroke-width: 1.5;" x1="224" x2="418.5" y1="434.375" y2="434.375"/><polygon fill="#A80036" points="414.5,351.4219,418.5,341.4219,422.5,351.4219,418.5,347.4219" style="stroke: #A80036; stroke-width: 1.5;"/><line style="stroke: #A80036; stroke-width: 1.5;" x1="418.5" x2="418.5" y1="250.4688" y2="434.375"/><line style="stroke: #A80036; stroke-width: 1.5;" x1="418.5" x2="271" y1="250.4688" y2="250.4688"/><polygon fill="#A80036" points="281,246.4688,271,250.4688,281,254.4688,277,250.4688" style="stroke: #A80036; stroke-width: 1.0;"/><line style="stroke: #A80036; stroke-width: 1.5;" x1="177" x2="148.5" y1="250.4688" y2="250.4688"/><polygon fill="#A80036" points="144.5,337.4219,148.5,347.4219,152.5,337.4219,148.5,341.4219" style="stroke: #A80036; stroke-width: 1.5;"/><line style="stroke: #A80036; stroke-width: 1.5;" x1="148.5" x2="148.5" y1="250.4688" y2="446.375"/><line style="stroke: #A80036; stroke-width: 1.5;" x1="148.5" x2="224" y1="446.375" y2="446.375"/><line style="stroke: #A80036; stroke-width: 1.5;" x1="224" x2="224" y1="446.375" y2="474.6563"/><polygon fill="#A80036" points="220,464.6563,224,474.6563,228,464.6563,224,468.6563" style="stroke: #A80036; stroke-width: 1.0;"/><line style="stroke: #A80036; stroke-width: 1.5;" x1="224" x2="224" y1="218.4688" y2="238.4688"/><polygon fill="#A80036" points="220,228.4688,224,238.4688,228,228.4688,224,232.4688" style="stroke: #A80036; stroke-width: 1.0;"/><line style="stroke: #A80036; stroke-width: 1.5;" x1="224" x2="224" y1="508.625" y2="546.9063"/><polygon fill="#A80036" points="220,536.9063,224,546.9063,228,536.9063,224,540.9063" style="stroke: #A80036; stroke-width: 1.0;"/><!--
@startuml
start
:get nessesary data;
note left
configFilePath,
destination(s),
isDry,
cwd
end note
:getFile(configFilePath);
note right: rsync step 1
:findAllAmount;
while (destinations)
:mergeConfig();
note right: rsync step 2
:createRsyncObj();
note right: rsync step 3
:execute();
note right: rsync step 4
endwhile
:result;
note
{
  names: [*..],
  logs: [*..]
}
end note
stop
@enduml

PlantUML version 1.2017.12(Wed Apr 26 18:06:36 CEST 2017)
(GPL source distribution)
Java Runtime: OpenJDK Runtime Environment
JVM: OpenJDK 64-Bit Server VM
Java Version: 1.8.0_131-8u131-b11-2ubuntu1.17.04.3-b11
Operating System: Linux
OS Version: 4.10.0-37-generic
Default Encoding: UTF-8
Language: en
Country: GB
--></g></svg>